# xmcd
#
# Track frame offsets:
# 150
# 15830
# 26565
# 36852
# 48000
# 61865
# 72612
# 86287
# 100610
# 112307
# 124247
# 137567
# 155467
# 165440
# 176962
# 192250
# 204777
# 219215
# 234987
# 248630
#
# Disc length: 3500 seconds
#
# Revision: 0
# Processed by: cddbd v1.4PL0 Copyright (c) Steve Scherf et al.
# Submitted via: Audion 3.0.2 (http://www.panic.com/audion/)
#
DISCID=fe0daa14
DTITLE=Dolly Parton - The Best of Dolly Parton
DYEAR=1900
DGENRE=
TTITLE0=My Blue Ridge Mountain Boy
TTITLE1=Games People Play
TTITLE2=My Blue Tear
TTITLE3=If I Lose My Mind
TTITLE4=Coat of Many Colors
TTITLE5=Just Someone I Used to Know
TTITLE6=My Tennessee Moutain Home
TTITLE7=Mule Skinner Blues
TTITLE8=The Last Thing on My Mind
TTITLE9=Jolene
TTITLE10=Here You Come Again
TTITLE11=Starting Over Again
TTITLE12=Making Plans
TTITLE13=Once More
TTITLE14=Old Flames Can't Hold a Candle to You
TTITLE15=Help!
TTITLE16=Heartbreak Express
TTITLE17=Release Me
TTITLE18=I Really Don't Want to Know
TTITLE19=I Will Always Love You
EXTD=
EXTT0=
EXTT1=
EXTT2=
EXTT3=
EXTT4=
EXTT5=
EXTT6=
EXTT7=
EXTT8=
EXTT9=
EXTT10=
EXTT11=
EXTT12=
EXTT13=
EXTT14=
EXTT15=
EXTT16=
EXTT17=
EXTT18=
EXTT19=
PLAYORDER=
